<svg id="Layer_1" data-name="Layer 1" xmlns="http://www.w3.org/2000/svg" viewBox="0 0 241.74 128.98"><defs><style>.cls-1{fill:#f02138;}</style></defs><path class="cls-1" d="M.64,129c.1-.52.56-.7.92-1l64-44.55L91.11,65.71c1.7-1.18,1.69-1.16,0-2.34L41.17,28.62Q21.46,14.89,1.75,1.18C1.41.94.73.8.9.28S1.65,0,2.05,0H49.19a3.55,3.55,0,0,1,2.13.65L92.8,29.56l37.36,26q5.86,4.08,11.73,8.17c1.15.8,1.15.83,0,1.6l-27.22,19L57,124.46c-2.16,1.5-4.31,3-6.46,4.53Z" transform="translate(-0.64 0)"/><path class="cls-1" d="M100.18,129a2.46,2.46,0,0,1,1-1l82-57.08c2.72-1.9,5.43-3.81,8.18-5.67.74-.5.86-.76,0-1.33Q177.85,54.46,164.25,45L108.88,6.42l-7.69-5.36c-.3-.21-.7-.34-.79-.78.34-.37.79-.24,1.18-.24h47.13a3.94,3.94,0,0,1,2.43.8q24,16.74,48.06,33.44L241.61,63.8c1,.71,1,.78,0,1.48Q211.83,86,182,106.75l-30.88,21.49a8.6,8.6,0,0,0-.85.75Z" transform="translate(-0.64 0)"/></svg>