<svg width="40" height="40" viewBox="0 0 40 40" fill="none" xmlns="http://www.w3.org/2000/svg">
<rect width="40" height="40" rx="3" fill="#E3000F"/>
<g clip-path="url(#clip0_1228_4523)">
<path d="M27.5 18.3335C27.5 24.1668 20 29.1668 20 29.1668C20 29.1668 12.5 24.1668 12.5 18.3335C12.5 16.3444 13.2902 14.4367 14.6967 13.0302C16.1032 11.6237 18.0109 10.8335 20 10.8335C21.9891 10.8335 23.8968 11.6237 25.3033 13.0302C26.7098 14.4367 27.5 16.3444 27.5 18.3335Z" stroke="white" stroke-width="1.5" stroke-linecap="round" stroke-linejoin="round"/>
<path d="M20 20.8335C21.3807 20.8335 22.5 19.7142 22.5 18.3335C22.5 16.9528 21.3807 15.8335 20 15.8335C18.6193 15.8335 17.5 16.9528 17.5 18.3335C17.5 19.7142 18.6193 20.8335 20 20.8335Z" stroke="white" stroke-width="1.5" stroke-linecap="round" stroke-linejoin="round"/>
</g>
<defs>
<clipPath id="clip0_1228_4523">
<rect width="20" height="20" fill="white" transform="translate(10 10)"/>
</clipPath>
</defs>
</svg>
