<svg width="40" height="40" viewBox="0 0 40 40" fill="none" xmlns="http://www.w3.org/2000/svg">
<rect width="40" height="40" rx="3" fill="#E3000F"/>
<g clip-path="url(#clip0_1228_4504)">
<path d="M22.5415 14.1666C23.3555 14.3254 24.1035 14.7235 24.6899 15.3099C25.2763 15.8963 25.6744 16.6443 25.8332 17.4583M22.5415 10.8333C24.2326 11.0211 25.8095 11.7784 27.0134 12.9808C28.2173 14.1831 28.9765 15.7591 29.1665 17.4499M28.3332 24.0999V26.5999C28.3341 26.832 28.2866 27.0617 28.1936 27.2744C28.1006 27.487 27.9643 27.6779 27.7933 27.8348C27.6222 27.9917 27.4203 28.1112 27.2005 28.1855C26.9806 28.2599 26.7477 28.2875 26.5165 28.2666C23.9522 27.988 21.489 27.1117 19.3249 25.7083C17.3114 24.4288 15.6043 22.7217 14.3249 20.7083C12.9165 18.5343 12.0401 16.0591 11.7665 13.4833C11.7457 13.2528 11.7731 13.0206 11.8469 12.8013C11.9208 12.582 12.0395 12.3805 12.1955 12.2096C12.3515 12.0387 12.5414 11.9022 12.753 11.8087C12.9647 11.7152 13.1935 11.6668 13.4249 11.6666H15.9249C16.3293 11.6626 16.7214 11.8058 17.028 12.0695C17.3346 12.3332 17.5349 12.6995 17.5915 13.0999C17.697 13.9 17.8927 14.6855 18.1749 15.4416C18.287 15.7399 18.3112 16.064 18.2448 16.3757C18.1783 16.6873 18.0239 16.9733 17.7999 17.1999L16.7415 18.2583C17.9278 20.3445 19.6552 22.072 21.7415 23.2583L22.7999 22.1999C23.0264 21.9759 23.3125 21.8215 23.6241 21.755C23.9358 21.6885 24.2599 21.7128 24.5582 21.8249C25.3143 22.107 26.0998 22.3027 26.8999 22.4083C27.3047 22.4654 27.6744 22.6693 27.9386 22.9812C28.2029 23.2931 28.3433 23.6912 28.3332 24.0999Z" stroke="white" stroke-width="1.5" stroke-linecap="round" stroke-linejoin="round"/>
</g>
<defs>
<clipPath id="clip0_1228_4504">
<rect width="20" height="20" fill="white" transform="translate(10 10)"/>
</clipPath>
</defs>
</svg>
