<svg width="12" height="12" viewBox="0 0 12 12" fill="none" xmlns="http://www.w3.org/2000/svg">
<g clip-path="url(#clip0_1396_1847)">
<path d="M9.17883 2.1582C9.03998 2.1582 8.90426 2.19938 8.78881 2.27652C8.67337 2.35366 8.58338 2.46329 8.53024 2.59157C8.47711 2.71986 8.46321 2.86102 8.4903 2.9972C8.51739 3.13338 8.58424 3.25847 8.68242 3.35665C8.78061 3.45483 8.90569 3.52169 9.04188 3.54878C9.17806 3.57587 9.31922 3.56197 9.4475 3.50883C9.57578 3.4557 9.68542 3.36571 9.76256 3.25026C9.8397 3.13481 9.88087 2.99908 9.88087 2.86023C9.88087 2.67404 9.80691 2.49548 9.67525 2.36382C9.5436 2.23217 9.36502 2.1582 9.17883 2.1582Z" fill="#7B7875"/>
<path d="M6.04795 3.03076C5.46304 3.03076 4.89129 3.20427 4.40502 3.52931C3.91874 3.85436 3.53981 4.31633 3.31618 4.8568C3.09254 5.39726 3.03425 5.99192 3.14868 6.56552C3.26311 7.13913 3.54512 7.6659 3.95902 8.07919C4.37291 8.49247 4.9001 8.77369 5.47387 8.88728C6.04764 9.00086 6.6422 8.94168 7.18234 8.71725C7.72247 8.49282 8.1839 8.11322 8.50823 7.62647C8.83256 7.13972 9.00521 6.5677 9.00434 5.98279C9.00319 5.19946 8.6912 4.44861 8.13689 3.89512C7.58259 3.34163 6.83128 3.03076 6.04795 3.03076ZM6.04795 7.8796C5.67261 7.88046 5.30546 7.76995 4.99296 7.56205C4.68046 7.35415 4.43666 7.05822 4.29242 6.7117C4.14819 6.36518 4.11001 5.98365 4.18271 5.61542C4.2554 5.24719 4.43571 4.90881 4.70081 4.6431C4.9659 4.37739 5.30387 4.19631 5.67193 4.12277C6.03999 4.04922 6.42161 4.08653 6.76846 4.22997C7.11531 4.3734 7.4118 4.61652 7.62042 4.92854C7.82904 5.24056 7.94039 5.60745 7.94039 5.98279C7.94269 6.23298 7.89548 6.48116 7.80146 6.71302C7.70744 6.94488 7.56848 7.15585 7.39258 7.33378C7.21667 7.51171 7.00731 7.65308 6.77654 7.74975C6.54577 7.84642 6.29815 7.89648 6.04795 7.89704V7.8796Z" fill="#7B7875"/>
<path d="M8.39382 12H3.59731C2.64167 12 1.7251 11.6206 1.04895 10.9453C0.3728 10.27 -0.00763351 9.35386 -0.00878906 8.39822V3.60171C-0.00763512 2.64566 0.372659 1.72911 1.04868 1.05308C1.72471 0.377054 2.64127 -0.00324058 3.59731 -0.00439453H8.39382C9.34987 -0.00324058 10.2664 0.377054 10.9424 1.05308C11.6185 1.72911 11.9988 2.64566 11.9999 3.60171V8.39822C11.9988 9.35386 11.6183 10.27 10.9422 10.9453C10.266 11.6206 9.34947 12 8.39382 12ZM3.59731 1.12933C2.94079 1.13048 2.31149 1.39179 1.84726 1.85602C1.38303 2.32025 1.12172 2.94955 1.12057 3.60607V8.40258C1.12172 9.0591 1.38303 9.68839 1.84726 10.1526C2.31149 10.6169 2.94079 10.8782 3.59731 10.8793H8.39382C9.05034 10.8782 9.67965 10.6169 10.1439 10.1526C10.6081 9.68839 10.8694 9.0591 10.8706 8.40258V3.60607C10.8694 2.94955 10.6081 2.32025 10.1439 1.85602C9.67965 1.39179 9.05034 1.13048 8.39382 1.12933H3.59731Z" fill="#7B7875"/>
</g>
<defs>
<clipPath id="clip0_1396_1847">
<rect width="12" height="12" fill="white"/>
</clipPath>
</defs>
</svg>
