<svg width="12" height="12" viewBox="0 0 12 12" fill="none" xmlns="http://www.w3.org/2000/svg">
<g clip-path="url(#clip0_1396_1853)">
<path d="M0.197367 3.98242H2.68859V11.9956H0.197367V3.98242ZM1.44298 6.7015e-06C1.72856 8.0236e-06 2.00772 0.084926 2.24511 0.244027C2.4825 0.403127 2.66746 0.629243 2.77654 0.893749C2.88563 1.15826 2.91395 1.44926 2.85791 1.7299C2.80188 2.01055 2.664 2.26822 2.46176 2.47029C2.25951 2.67237 2.002 2.80975 1.7218 2.86505C1.4416 2.92035 1.15133 2.89109 0.887734 2.78096C0.624141 2.67083 0.399084 2.48479 0.241055 2.2464C0.083027 2.008 -0.00086136 1.72797 6.66883e-06 1.44176C5.7891e-06 1.25206 0.0373531 1.06421 0.109923 0.889001C0.182494 0.713791 0.288852 0.554657 0.422903 0.42072C0.556954 0.286783 0.716061 0.180684 0.891107 0.108488C1.06615 0.0362922 1.25369 -0.000571667 1.44298 6.7015e-06Z" fill="#7B7875"/>
<path d="M4.24561 3.98249H6.63157V5.07699H6.66665C6.90483 4.66826 7.24938 4.3321 7.66347 4.10447C8.07755 3.87684 8.5456 3.76631 9.01754 3.78468C11.5351 3.78468 12 5.44182 12 7.60007V11.9957H9.51753V8.10117C9.51753 7.1693 9.51754 5.9737 8.22368 5.9737C6.92982 5.9737 6.73244 6.98469 6.73244 8.03084V11.9869H4.24561V3.98249Z" fill="#7B7875"/>
</g>
<defs>
<clipPath id="clip0_1396_1853">
<rect width="12" height="12" fill="white"/>
</clipPath>
</defs>
</svg>
