<svg width="12" height="8" viewBox="0 0 12 8" fill="none" xmlns="http://www.w3.org/2000/svg">
<path d="M12 2.50516C11.999 1.8404 11.7209 1.20321 11.2268 0.733511C10.7327 0.263809 10.0631 -7.44868e-07 9.3649 0H2.63117C2.28564 0 1.9435 0.064797 1.62427 0.190693C1.30504 0.31659 1.01498 0.501114 0.770656 0.73374C0.52633 0.966366 0.332525 1.24254 0.200296 1.54648C0.0680681 1.85042 0 2.17618 0 2.50516V5.50985C0 6.17426 0.277217 6.81146 0.770656 7.28127C1.2641 7.75108 1.93334 8.01502 2.63117 8.01502H9.3649C10.0631 8.01502 10.7327 7.7512 11.2268 7.2815C11.7209 6.8118 11.999 6.17461 12 5.50985V2.50516ZM8.05523 4.22159L5.03748 5.64507C4.91914 5.70516 4.51677 5.62253 4.51677 5.49483V2.56525C4.51677 2.4338 4.91125 2.35117 5.04143 2.41502L7.929 3.91737C8.03551 3.99249 8.16174 4.15774 8.03945 4.22159H8.05523Z" fill="#7B7875"/>
</svg>
